HIERARCHY
ROOT Hips
{
	OFFSET 0.000000 0.000000 0.000000
	CHANNELS 6 Xposition Yposition Zposition Zrotation Yrotation Xrotation 
	JOINT LowerBack
	{
		OFFSET 0.000000 0.000000 0.000000
		CHANNELS 3 Zrotation Yrotation Xrotation
		JOINT Spine
		{
			OFFSET 0.028270 2.035590 -0.193380
			CHANNELS 3 Zrotation Yrotation Xrotation
			JOINT Spine1
			{
				OFFSET 0.056720 2.048850 -0.042750
				CHANNELS 3 Zrotation Yrotation Xrotation
				JOINT Neck
				{
					OFFSET 0.000000 0.000000 0.000000
					CHANNELS 3 Zrotation Yrotation Xrotation
					JOINT Neck1
					{
						OFFSET -0.054170 1.746240 0.172020
						CHANNELS 3 Zrotation Yrotation Xrotation
						JOINT Head
						{
							OFFSET 0.104070 1.761360 -0.123970
							CHANNELS 3 Zrotation Yrotation Xrotation
							End Site
							{
								OFFSET 0.000000 0.000000 0.000000
							}
						}
					}
				}
				JOINT LeftShoulder
				{
					OFFSET 0.000000 0.000000 0.000000
					CHANNELS 3 Zrotation Yrotation Xrotation
					JOINT LeftArm
					{
						OFFSET 3.362410 1.200890 -0.311210
						CHANNELS 3 Zrotation Yrotation Xrotation
						JOINT LeftForeArm
						{
							OFFSET 4.983000 -0.000000 -0.000000
							CHANNELS 3 Zrotation Yrotation Xrotation
							JOINT LeftHand
							{
								OFFSET 3.483560 -0.000000 -0.000000
								CHANNELS 3 Zrotation Yrotation Xrotation
								JOINT LeftFingerBase
								{
									OFFSET 0.000000 0.000000 0.000000
									CHANNELS 3 Zrotation Yrotation Xrotation
									JOINT LeftHandIndex1
									{
										OFFSET 0.715260 -0.000000 -0.000000
										CHANNELS 3 Zrotation Yrotation Xrotation
										End Site
										{
											OFFSET 0.000000 0.000000 0.000000
										}
									}
								}
								JOINT LThumb
								{
									OFFSET 0.000000 0.000000 0.000000
									CHANNELS 3 Zrotation Yrotation Xrotation
									End Site
									{
										OFFSET 0.000000 0.000000 0.000000
									}
								}
							}
						}
					}
				}
				JOINT RightShoulder
				{
					OFFSET 0.000000 0.000000 0.000000
					CHANNELS 3 Zrotation Yrotation Xrotation
					JOINT RightArm
					{
						OFFSET -3.136600 1.374050 -0.404650
						CHANNELS 3 Zrotation Yrotation Xrotation
						JOINT RightForeArm
						{
							OFFSET -5.241900 -0.000000 -0.000000
							CHANNELS 3 Zrotation Yrotation Xrotation
							JOINT RightHand
							{
								OFFSET -3.444170 -0.000000 -0.000000
								CHANNELS 3 Zrotation Yrotation Xrotation
								JOINT RightFingerBase
								{
									OFFSET 0.000000 0.000000 0.000000
									CHANNELS 3 Zrotation Yrotation Xrotation
									JOINT RightHandIndex1
									{
										OFFSET -0.622530 -0.000000 -0.000000
										CHANNELS 3 Zrotation Yrotation Xrotation
										End Site
										{
											OFFSET 0.000000 0.000000 0.000000
										}
									}
								}
								JOINT RThumb
								{
									OFFSET 0.000000 0.000000 0.000000
									CHANNELS 3 Zrotation Yrotation Xrotation
									End Site
									{
										OFFSET 0.000000 0.000000 0.000000
									}
								}
							}
						}
					}
				}
			}
		}
	}
}
}
MOTION
Frames: 10
Frame Time: 0.008333
1.245462 17.148298 1.075965 6.569046 -48.345124 13.199202 -7.928297 -3.725678 -8.558381 -2.455569 -3.196816 -4.021380 -8.786167 -3.073898 0.729990 15.534712 -14.957515 -5.500551 -2.072590 -0.190764 0.619778 0.000000 0.000000 0.000000 3.223250 3.407883 0.522728 -62.780938 -1.995498 6.251374 -1.257780 -64.237831 -0.034096 13.660985 -4.978859 -0.629522 -0.172641 0.228261 -0.000000 0.000000 0.000000 0.000000 0.000000 0.000000 0.000000 7.092383 -11.645944 -3.534651 83.145114 13.694379 18.467554 -179.297252 64.054095 179.860264 -12.825040 14.268169 -1.752164 0.240781 -0.962964 0.000000 0.000000 0.000000 0.000000 0.000000 0.000000 0.000000 
1.246293 17.152260 1.088956 6.169423 -47.276316 13.438578 -7.937704 -3.738537 -8.366903 -2.465665 -3.206037 -3.988522 -8.830635 -3.077430 0.692897 15.680647 -15.035985 -5.499058 -2.067500 -0.190085 0.616319 0.000000 0.000000 0.000000 3.372041 3.229309 0.487910 -62.758335 -2.316349 6.349406 -1.227493 -64.655483 -0.035662 13.703209 -4.904150 -0.623198 -0.174665 0.234173 -0.000000 0.000000 0.000000 0.000000 0.000000 0.000000 0.000000 7.165060 -11.723394 -3.490753 83.187842 13.289728 18.226361 -179.289696 63.983160 179.859777 -12.860647 14.306218 -1.761450 0.240562 -0.963352 0.000000 0.000000 0.000000 0.000000 0.000000 0.000000 0.000000 
1.247691 17.157465 1.102125 5.733839 -46.244407 13.706003 -7.917186 -3.738071 -8.193351 -2.471154 -3.205235 -3.958964 -8.875320 -3.070856 0.659424 15.831707 -15.109511 -5.493748 -2.062541 -0.189479 0.613893 0.000000 0.000000 0.000000 3.518498 3.069759 0.450678 -62.740630 -2.686279 6.465043 -1.199846 -65.020345 -0.037199 13.743121 -4.828154 -0.616472 -0.176805 0.239972 -0.000000 0.000000 0.000000 0.000000 0.000000 0.000000 0.000000 7.242853 -11.792688 -3.448691 83.209036 12.888937 17.990131 -179.284912 63.910254 179.859430 -12.888111 14.340641 -1.769238 0.240307 -0.963557 0.000000 0.000000 0.000000 0.000000 0.000000 0.000000 0.000000 
1.249667 17.163701 1.115414 5.263330 -45.250679 14.003335 -7.867365 -3.724608 -8.041054 -2.472205 -3.194640 -3.934311 -8.920509 -3.054652 0.625617 15.987479 -15.176174 -5.482253 -2.057560 -0.188980 0.613243 0.000000 0.000000 0.000000 3.664306 2.910476 0.411409 -62.726543 -3.080491 6.588597 -1.173355 -65.354208 -0.038716 13.776724 -4.748341 -0.608946 -0.178958 0.245685 -0.000000 0.000000 0.000000 0.000000 0.000000 0.000000 0.000000 7.321505 -11.850935 -3.406425 83.209643 12.486890 17.757001 -179.282394 63.832603 179.859208 -12.906881 14.369120 -1.775025 0.239975 -0.963597 0.000000 0.000000 0.000000 0.000000 0.000000 0.000000 0.000000 
1.252160 17.170741 1.128614 4.764708 -44.297603 14.326394 -7.793610 -3.699295 -7.910075 -2.469691 -3.174813 -3.913801 -8.966162 -3.029260 0.594468 16.149736 -15.235640 -5.468913 -2.051306 -0.188421 0.613094 0.000000 0.000000 0.000000 3.814242 2.772001 0.370402 -62.716361 -3.527069 6.739888 -1.148659 -65.648460 -0.040229 13.805567 -4.664290 -0.600720 -0.181275 0.251435 -0.000000 0.000000 0.000000 0.000000 0.000000 0.000000 0.000000 7.398480 -11.897027 -3.365175 83.193141 12.084477 17.526622 -179.281149 63.745306 179.859089 -12.916881 14.389137 -1.778712 0.239537 -0.963483 0.000000 0.000000 0.000000 0.000000 0.000000 0.000000 0.000000 
1.255234 17.178392 1.141642 4.239456 -43.383788 14.675018 -7.696243 -3.663222 -7.799921 -2.463590 -3.146764 -3.898401 -9.012212 -2.995927 0.561388 16.316871 -15.286200 -5.451291 -2.043683 -0.187839 0.614183 0.000000 0.000000 0.000000 3.970399 2.632879 0.328319 -62.708979 -3.999861 6.907116 -1.124152 -65.927286 -0.041757 13.825870 -4.573851 -0.591293 -0.183635 0.257269 -0.000000 0.000000 0.000000 0.000000 0.000000 0.000000 0.000000 7.468852 -11.928641 -3.322568 83.161615 11.678238 17.297683 -179.280651 63.647703 179.859048 -12.918452 14.399074 -1.779999 0.238952 -0.963234 0.000000 0.000000 0.000000 0.000000 0.000000 0.000000 0.000000 
1.258745 17.186441 1.154277 3.696269 -42.509496 15.043995 -7.579394 -3.617766 -7.707290 -2.454395 -3.111416 -3.886886 -9.057996 -2.955472 0.528501 16.489196 -15.328643 -5.433185 -2.033667 -0.187090 0.615379 0.000000 0.000000 0.000000 4.136368 2.507686 0.285614 -62.705312 -4.519549 7.104495 -1.100190 -66.186889 -0.043313 13.839217 -4.477908 -0.580864 -0.186154 0.263304 0.000000 0.000000 0.000000 0.000000 0.000000 0.000000 0.000000 7.530087 -11.946316 -3.279062 83.118328 11.271016 17.070888 -179.280451 63.538552 179.859062 -12.912389 14.398698 -1.778884 0.238223 -0.962882 0.000000 0.000000 0.000000 0.000000 0.000000 0.000000 0.000000 
1.263048 17.194740 1.166384 3.132937 -41.673155 15.431415 -7.442428 -3.563995 -7.627863 -2.441860 -3.069878 -3.878818 -9.103684 -2.909026 0.493738 16.665531 -15.362679 -5.414334 -2.021075 -0.186162 0.616742 0.000000 0.000000 0.000000 4.314189 2.389108 0.242724 -62.705984 -5.079662 7.328741 -1.075971 -66.439554 -0.044921 13.844752 -4.377470 -0.569534 -0.188788 0.269630 0.000000 0.000000 0.000000 0.000000 0.000000 0.000000 0.000000 7.578727 -11.949507 -3.233675 83.066191 10.864882 16.846419 -179.280098 63.416074 179.859099 -12.899606 14.388230 -1.775772 0.237332 -0.962508 0.000000 0.000000 0.000000 0.000000 0.000000 0.000000 0.000000 
1.268238 17.203206 1.177765 2.551407 -40.873437 15.833910 -7.284924 -3.502896 -7.556623 -2.425623 -3.023153 -3.873082 -9.148775 -2.857529 0.457276 16.844897 -15.389392 -5.396343 -2.005513 -0.184994 0.617780 0.000000 0.000000 0.000000 4.504984 2.280435 0.200019 -62.712060 -5.686816 7.582947 -1.051351 -66.688764 -0.046593 13.843447 -4.274452 -0.557704 -0.191562 0.276337 0.000000 0.000000 0.000000 0.000000 0.000000 0.000000 0.000000 7.612651 -11.939391 -3.186143 83.007011 10.464004 16.625668 -179.279610 63.280766 179.859131 -12.881275 14.369402 -1.770858 0.236299 -0.962181 0.000000 0.000000 0.000000 0.000000 0.000000 0.000000 0.000000 
1.274653 17.211785 1.188420 1.946580 -40.107615 16.252910 -7.100914 -3.434946 -7.489753 -2.404303 -2.972285 -3.869771 -9.192744 -2.802187 0.415446 17.024104 -15.408325 -5.376734 -1.987352 -0.183654 0.619228 0.000000 0.000000 0.000000 4.707801 2.163810 0.157802 -62.725087 -6.319672 7.852404 -1.025214 -66.952883 -0.048339 13.833921 -4.171393 -0.545571 -0.194356 0.283482 0.000000 0.000000 0.000000 0.000000 0.000000 0.000000 0.000000 7.628452 -11.915775 -3.134783 82.941196 10.069956 16.408794 -179.279230 63.135907 179.859146 -12.858117 14.344755 -1.764647 0.235097 -0.961963 0.000000 0.000000 0.000000 0.000000 0.000000 0.000000 0.000000 
